<?xml version="1.0" encoding="utf-8" ?>
<svg xmlns="http://www.w3.org/2000/svg" xmlns:xlink="http://www.w3.org/1999/xlink" width="40" height="40">
	<defs>
		<linearGradient id="gradient_0" gradientUnits="userSpaceOnUse" x1="169.86765" y1="447.25827" x2="343.15433" y2="59.586788">
			<stop offset="0" stop-color="#FF6F00"/>
			<stop offset="1" stop-color="#FF9C0A"/>
		</linearGradient>
	</defs>
	<path fill="url(#gradient_0)" transform="scale(0.078125 0.078125)" d="M166.821 73.3384L344.438 73.3304C353.504 73.3261 363.15 72.6641 372.071 74.4811C407.649 81.7281 436.079 112.103 436.096 149.411L436.012 340.072C436.013 351.623 436.754 363.528 434.329 374.88C428.138 403.873 402.532 428.757 372.816 432.42C363.969 433.511 354.806 433.095 345.902 433.087L169.538 433.093C158.786 433.091 147.325 433.792 136.784 431.421C107.495 424.834 83.3293 401.736 77.2891 372.088C75.0403 361.05 75.7248 349.567 75.7311 338.358L75.7204 152.122C75.7899 113.007 106.903 78.2367 145.817 73.8643C152.741 73.0864 159.861 73.3274 166.821 73.3384ZM298.502 200.931C296.756 196.69 295.989 192.105 294.47 187.778C285.958 168.362 271.303 170.602 253.164 170.618C245.841 170.624 238.995 170.04 232.14 173.097C219.191 178.873 218.775 191.041 214.475 202.384C208.702 169.574 198.161 170.643 169.03 170.624C163.093 170.621 153.9 170.015 148.228 171.097C133.35 173.933 124.984 187.701 127.969 202.287C128.864 206.661 130.238 210.979 131.417 215.285L150.289 282.653C154.263 296.669 158.371 310.647 161.959 324.769C169.818 353.655 180.172 354.745 207.259 354.763C232.952 354.78 239.36 355.68 249.391 329.31C251.213 324.518 253.222 319.814 255.494 315.218L261.922 330.618C272.768 357.109 272.411 351.441 300.225 354.869C326.388 358.093 329.953 388.715 348.933 390.919C366.51 392.959 377.58 370.219 379.083 355.882C383.425 314.442 330.484 291.132 300.822 322.806C298.52 325.264 296.959 329.252 294.343 331.217C287.28 336.52 283.349 317.235 282.182 313.97L264.25 262.83C262.258 257.101 258.342 243.596 255.494 239.217C252.898 247.837 249.73 256.261 246.757 264.754L227.53 318.989C222.304 333.819 224.912 331.352 209.705 331.384L199.028 331.446C184.163 331.67 187.682 328.457 183.463 313.039L164.413 245.063C162.534 238.519 150.237 198.986 150.791 195.558L151.042 195.692L151.065 195.315C155.216 194.266 161.675 194.718 166.078 194.713L187.821 194.715C192.616 215.156 199.015 237.19 204.701 257.43C206.853 265.089 209.421 277.397 212.794 284.274C215.396 270.697 221.788 254.364 226.078 241.101L235.206 213.294C237.228 207.231 238.922 200.17 242.261 194.715L259.962 194.695C276.315 194.697 270.787 195.605 276.63 212.75L295.599 269.41C297.21 274.131 298.348 279.61 300.707 283.983L300.868 284.274C303.215 271.693 307.163 259.357 310.333 246.962C314.775 229.6 318.659 211.652 324.589 194.715L361.652 194.715C357.572 210.425 352.886 225.968 348.738 241.658L344.731 257.224C341.429 270.436 344.153 264.993 335.458 272.645C318.569 287.509 331.607 308.987 345.948 302.195C358.814 296.101 363.272 273.029 366.95 260.479L382.253 209.503C383.511 205.371 384.967 201.108 385.49 196.811C387.057 183.917 376.546 171.987 363.845 170.846C353.971 169.958 322.46 169.443 314.566 173.431C302.483 179.533 302.29 189.6 298.502 200.931ZM375.957 276.525C367.408 279.187 354.103 293.152 357.122 303.177C358.877 309.002 364.918 312.97 370.962 311.486C389.718 306.15 400.547 275.178 375.957 276.525ZM397.816 300.825C375.669 304.506 365.069 330.226 386.397 333.039C411.905 329.777 416.087 301.749 397.816 300.825ZM403.043 333.039C379.144 335.593 373.649 363.759 394.007 363.746C421.4 359.504 419.205 330.512 403.043 333.039Z"/>
	<path fill="#FEAA37" transform="scale(0.078125 0.078125)" d="M93.7571 350.311L93.7521 174.002C93.7521 164.56 93.1592 154.629 94.8768 145.319C99.5595 119.94 120.483 99.5891 145.252 93.5431C154.983 91.1679 165.149 91.4656 175.096 91.4675L342.664 91.4676C347.745 91.4733 353.058 91.9791 358.097 91.5218L358.593 91.4739C345.007 127.421 319.98 159.409 294.47 187.778C285.958 168.362 271.303 170.602 253.164 170.618C245.841 170.624 238.995 170.04 232.14 173.097C219.191 178.873 218.775 191.041 214.475 202.384C208.702 169.574 198.161 170.643 169.03 170.624C163.093 170.621 153.9 170.015 148.228 171.097C133.35 173.933 124.984 187.701 127.969 202.287C128.864 206.661 130.238 210.979 131.417 215.285L150.289 282.653C154.263 296.669 158.371 310.647 161.959 324.769C159.146 326.459 155.555 327.609 152.483 328.754L138.88 333.79C123.823 339.384 108.992 345.197 93.7571 350.311Z"/>
</svg>
